<svg xmlns="http://www.w3.org/2000/svg" xmlns:xlink="http://www.w3.org/1999/xlink" width="1460" height="531" viewBox="0 0 1460 531"><defs><path id="spnxa" d="M1301.807 1765.144c-.11 0-.218.014-.328.017-1.433-7.06-7.423-12.463-14.767-13.01-2.563-12.272-13.44-21.49-26.472-21.49a27.11 27.11 0 0 0-6.312.748c-5.74-14.303-19.727-24.409-36.083-24.409-10.377 0-19.796 4.074-26.768 10.7a17.877 17.877 0 0 0-7.166-1.492c-8.81 0-16.132 6.35-17.652 14.722-13.143 1.842-23.259 13.125-23.259 26.776 0 14.937 12.109 27.046 27.045 27.046h131.762c5.414 0 9.803-4.39 9.803-9.803 0-5.415-4.389-9.805-9.803-9.805"/><path id="spnxb" d="M363.75 1915.678c2.476-4.983 2.464-15.943-5.345-19.004-7.307-2.864-14.473 2.213-20.846 1.193-6.373-1.021-7.021-15.503-28.585-10.425-10.76 2.534-9.628-9.442-24.185-9.442-14.558 0-20.582 19.243-19.706 30.567.877 11.324 6.91 19.384 16.234 21.847 9.325 2.464 23.273-3.727 46.882-2.356 23.608 1.37 33.075-7.396 35.55-12.38z"/><path id="spnxc" d="M587 1897.5c0-9.113 7.387-16.5 16.5-16.5s16.5 7.387 16.5 16.5-7.387 16.5-16.5 16.5-16.5-7.387-16.5-16.5z"/><path id="spnxe" d="M-28 1445c0-24.853 20.147-45 45-45s45 20.147 45 45-20.147 45-45 45-45-20.147-45-45z"/><path id="spnxg" d="M430 1451c0-7.18 5.82-13 13-13s13 5.82 13 13-5.82 13-13 13-13-5.82-13-13z"/><path id="spnxi" d="M39 1891.5c0-11.322 9.178-20.5 20.5-20.5s20.5 9.178 20.5 20.5-9.178 20.5-20.5 20.5-20.5-9.178-20.5-20.5z"/><path id="spnxk" d="M130.79 1695.074c-.194 0-.382.024-.575.03-2.515-12.396-13.032-21.88-25.925-22.842-4.498-21.542-23.593-37.724-46.472-37.724-3.817 0-7.524.463-11.08 1.313C36.66 1610.74 12.105 1593-16.609 1593c-18.216 0-34.753 7.153-46.992 18.783a31.383 31.383 0 0 0-12.58-2.619c-15.467 0-28.32 11.148-30.988 25.846-23.073 3.233-40.832 23.042-40.832 47.006 0 26.223 21.257 47.48 47.479 47.48h231.31c9.506 0 17.211-7.706 17.211-17.21 0-9.506-7.705-17.212-17.21-17.212"/><linearGradient id="spnxd" x1="620" x2="587" y1="1914" y2="1881" gradientUnits="userSpaceOnUse"><stop offset="0" stop-color="#ff7676"/><stop offset="1" stop-color="#f54ea2"/></linearGradient><linearGradient id="spnxf" x1="-3.52" x2="21.02" y1="1412.9" y2="1483.18" gradientUnits="userSpaceOnUse"><stop offset="0" stop-color="#1acbfd"/><stop offset="1" stop-color="#345aff"/></linearGradient><linearGradient id="spnxh" x1="453.75" x2="430" y1="1464" y2="1443.59" gradientUnits="userSpaceOnUse"><stop offset="0" stop-color="#fce38a"/><stop offset="1" stop-color="#f38181"/></linearGradient><linearGradient id="spnxj" x1="39" x2="80" y1="1871" y2="1912" gradientUnits="userSpaceOnUse"><stop offset="0" stop-color="#43e695"/><stop offset="1" stop-color="#3bb2b8"/></linearGradient></defs><g><g transform="translate(148 -1400)"><use fill="#f3f8ff" xlink:href="#spnxa"/></g><g transform="translate(148 -1400)"><use fill="#f3f8ff" xlink:href="#spnxb"/></g><g transform="translate(148 -1400)"><use fill="url(#spnxd)" xlink:href="#spnxc"/></g><g transform="translate(148 -1400)"><use fill="url(#spnxf)" xlink:href="#spnxe"/></g><g transform="translate(148 -1400)"><use fill="url(#spnxh)" xlink:href="#spnxg"/></g><g transform="translate(148 -1400)"><use fill="url(#spnxj)" xlink:href="#spnxi"/></g><g transform="rotate(-10 -7907.537 -103.324)"/><g transform="rotate(-10 -7322.037 349.676)"/><g transform="rotate(27 3050.21 1499.232)"/><g transform="rotate(27 3433.21 1058.232)"/><g transform="translate(148 -1400)"><use fill="#f3f8ff" xlink:href="#spnxk"/></g></g></svg>