<svg xmlns="http://www.w3.org/2000/svg" xmlns:xlink="http://www.w3.org/1999/xlink" width="48" height="48" viewBox="0 0 48 48"><defs><path id="71ina" d="M792 798a4 4 0 0 1 4-4h40a4 4 0 0 1 4 4v40a4 4 0 0 1-4 4h-40a4 4 0 0 1-4-4z"/><path id="71inc" d="M817.272 815.33a2.502 2.502 0 0 1-2.502-2.498 2.499 2.499 0 1 1 5 0 2.498 2.498 0 0 1-2.498 2.498zm5.685 6.525v-3.808c0-8.5-3.523-13.638-4.997-15.41a.834.834 0 0 0-1.283-.01c-1.497 1.773-5.09 6.911-5.09 15.42v3.813l-.692.47a4.964 4.964 0 0 0-2.125 4.083v4.55c0 .268.148.517.378.645a.7.7 0 0 0 .735-.037l2.24-1.523a3.792 3.792 0 0 1 2.124-.655h1.644v2.206c0 .405.324.731.721.731h1.316c.397 0 .72-.326.72-.731v-2.206h1.644c.758 0 1.497.225 2.125.655l2.24 1.523a.7.7 0 0 0 .735.037.733.733 0 0 0 .378-.645v-4.55a4.97 4.97 0 0 0-2.125-4.082z"/><linearGradient id="71inb" x1="835.85" x2="792" y1="842" y2="804.32" gradientUnits="userSpaceOnUse"><stop offset="0" stop-color="#fce38a"/><stop offset="1" stop-color="#f38181"/></linearGradient></defs><g><g transform="translate(-792 -794)"><use fill="url(#71inb)" xlink:href="#71ina"/></g><g clip-path="url(#clip-CE4849FD-2002-43DC-A7C9-0E882A3FC27D)" transform="translate(-792 -794)"><use fill="#fff" xlink:href="#71inc"/></g></g></svg>